inDegrees=yes
name=ik_S49_A03_T01
DataType=double
version=3
OpenSimVersion=4.3-2021-08-27-4bc7ad9
endheader
time	pelvis_tilt	pelvis_list	pelvis_rotation	pelvis_tx	pelvis_ty	pelvis_tz	hip_flexion_r	hip_adduction_r	hip_rotation_r	knee_angle_r	knee_angle_r_beta	ankle_angle_r	subtalar_angle_r	mtp_angle_r	hip_flexion_l	hip_adduction_l	hip_rotation_l	knee_angle_l	knee_angle_l_beta	ankle_angle_l	subtalar_angle_l	mtp_angle_l	lumbar_extension	lumbar_bending	lumbar_rotation	arm_flex_r	arm_add_r	arm_rot_r	elbow_flex_r	pro_sup_r	wrist_flex_r	wrist_dev_r	arm_flex_l	arm_add_l	arm_rot_l	elbow_flex_l	pro_sup_l	wrist_flex_l	wrist_dev_l
35.55999999999996	-1.005828169621662	-0.4329666087308885	-83.45116116139221	0	0.9399999999999999	0	11.81910605171208	0.5905117436348579	-1.324527091340134	10.4632510426987	0.1826181811578221	0	0	0	8.144347074264786	-1.688280022047151	-4.159264424887687	1.770245630990066	0.03089661482982121	0	0	0	0	0	0	43.71328623707115	-43.71328623707121	4.989665581325038	84.85303331704698	85.01033469255947	0	0	43.71328623707115	-43.71328623707121	4.989665581325038	84.85303331704698	85.01033469255776	0	0
35.57999999999996	-0.9170915901082592	-0.4153803632000023	-83.48112450863904	0	0.9399999999999999	0	11.75088450667784	0.3738669657564236	-1.366095443004914	9.860811343078742	0.1721036248547282	0	0	0	7.795225437748692	-1.321592726399643	-3.159216150586255	1.484085757224356	0.02590218284551824	0	0	0	0	0	0	43.71359563991827	-43.71359563991832	4.989670592883604	84.85310458789712	85.0103296810011	0	0	43.71359563991827	-43.71359563991832	4.989670592883604	84.85310458789712	85.0103296809994	0	0
35.59999999999997	-0.6485654054063654	-0.3507959139638357	-83.49995009867881	0	0.9399999999999999	0	11.44930360854527	-0.08783929904778681	-0.6190230036060524	9.409887984273935	0.1642335275694325	0	0	0	7.479782509565655	-0.7904821404924942	-2.254758456853732	0.8934632330841008	0.01559387516283109	0	0	0	0	0	0	43.71400901263765	-43.71400901263771	4.989677260929191	84.8531994161342	85.01032301295571	0	0	43.71400901263765	-43.71400901263771	4.989677260929191	84.8531994161342	85.01032301295402	0	0
35.61999999999997	-0.333967174630286	-0.4042781506515198	-83.52616764689496	0	0.9399999999999999	0	10.85959375781131	-0.7928142041512185	-0.288154359929696	8.863357815213517	0.154694776657847	0	0	0	7.059621842323671	-0.3765157059200302	-2.355507852149599	1.161904673980844	0.02027906215527701	0	0	0	0	0	0	43.71426998374561	-43.71426998374567	4.989681472741338	84.85325931355335	85.01031880114367	0	0	43.71426998374561	-43.71426998374567	4.989681472741338	84.85325931355335	85.01031880114198	0	0
35.63999999999997	-0.04849638792618337	-0.4968654113352505	-83.47028261328205	0	0.9399999999999999	0	10.07762818735005	-1.649066353403893	-2.445859920892737	8.841545661155692	0.1543140827525857	0	0	0	6.626866081015147	-0.216438995318061	-3.374503083625915	1.288789701724971	0.02249362366089639	0	0	0	0	0	0	43.71782400235359	-43.71782400235364	4.989730669406519	84.85395895299852	85.01026960448019	0	0	43.71782400235359	-43.71782400235364	4.989730669406519	84.85395895299852	85.01026960447848	0	0
35.65999999999998	0.1340273367108644	-0.4565764987468861	-83.35442054465506	0	0.9399999999999999	0	10.12177050567624	-1.816353678700408	-2.359303255968646	8.923189839985852	0.1557390424882591	0	0	0	6.325865238204049	-0.1345481976651969	-4.431385491901021	1.391717861351555	0.02429005893939857	0	0	0	0	0	0	43.71793967083425	-43.7179396708343	4.989732534561638	84.85398547791738	85.01026773932513	0	0	43.71793967083425	-43.7179396708343	4.989732534561638	84.85398547791738	85.01026773932344	0	0
35.67999999999998	0.188630044125008	-0.4324522400879517	-83.21776422263591	0	0.9399999999999999	0	9.719132278399986	-1.769519025456544	-0.9003831231741364	8.178456101587011	0.1427409867025132	0	0	0	6.337892481988608	-0.07929357582543137	-4.356675914802981	1.54772744664243	0.02701293986739527	0	0	0	0	0	0	43.718261292048	-43.71826129204806	4.989737728624713	84.85405934421492	85.01026254526225	0	0	43.718261292048	-43.71826129204806	4.989737728624713	84.85405934421492	85.01026254526057	0	0
35.69999999999998	0.1771022939689786	-0.4012883490940727	-83.15472684681623	0	0.9399999999999999	0	9.74582919396488	-1.812486097223596	-1.030279250091112	8.065892265659057	0.1407763771468957	0	0	0	6.032771748381741	-0.2111626499405593	-5.108555765706537	1.559652646076723	0.02722107386148063	0	0	0	0	0	0	43.71836038895162	-43.71836038895168	4.989739323314015	84.85408202275953	85.010260950573	0	0	43.71836038895162	-43.71836038895168	4.989739323314015	84.85408202275953	85.01026095057132	0	0
35.71999999999998	0.09098641506429253	-0.102854789602719	-82.76707006394726	0	0.9399999999999999	0	8.829056679054879	-1.784420281549906	-0.3300591597024827	6.426960730674597	0.1121716256466522	0	0	0	6.32996616881695	-0.2225549382738097	-4.750686079670519	1.69218324637701	0.02953416919636523	0	0	0	0	0	0	43.71858884606585	-43.71858884606591	4.989743006223056	84.85413439849064	85.01025726766413	0	0	43.71858884606585	-43.71858884606591	4.989743006223056	84.85413439849064	85.01025726766244	0	0
35.73999999999999	0.09206536788603147	-0.1065476375857879	-82.75431045035221	0	0.9399999999999999	0	8.34902983284827	-2.045657445524706	-0.8243589047966122	6.082742913017793	0.1061638913845115	0	0	0	5.793655792569975	-0.02190448380160615	-4.54551805292209	1.329490811559263	0.02320399203672062	0	0	0	0	0	0	43.71880454272292	-43.71880454272298	4.989746486054717	84.85418388619885	85.0102537878326	0	0	43.71880454272292	-43.71880454272298	4.989746486054717	84.85418388619885	85.01025378783092	0	0
